PathFileType	4	(X/Y/Z)	 s10c0403.trc
DataRate	CameraRate	NumFrames	NumMarkers	Units	OrigDataRate	OrigDataStartFrame	OrigNumFrames
200	200	5	49	mm	200	1501	2000
Frame#	Time	racr			lacr			c7			jug			rlel			rdr			llel			ldr			s2			lic			ric			lasi			rasi			rpsi			lpsi			rgt			lgt			rth1			rth2			rth3			rth4			rlfc			rmfc			rsh1			rsh2			rsh3			rsh4			rlmal			rmmal			rcal			rtoe			rmt5			lth1			lth2			lth4			lth3			llfc			lmfc			llmal			lcal			lmt5			lsh1			lsh2			lsh3			lsh4			ltoe			SBIKE			LBIKE			RBIKE			
		X1	Y1	Z1	X2	Y2	Z2	X3	Y3	Z3	X4	Y4	Z4	X5	Y5	Z5	X6	Y6	Z6	X7	Y7	Z7	X8	Y8	Z8	X9	Y9	Z9	X10	Y10	Z10	X11	Y11	Z11	X12	Y12	Z12	X13	Y13	Z13	X14	Y14	Z14	X15	Y15	Z15	X16	Y16	Z16	X17	Y17	Z17	X18	Y18	Z18	X19	Y19	Z19	X20	Y20	Z20	X21	Y21	Z21	X22	Y22	Z22	X23	Y23	Z23	X24	Y24	Z24	X25	Y25	Z25	X26	Y26	Z26	X27	Y27	Z27	X28	Y28	Z28	X29	Y29	Z29	X30	Y30	Z30	X31	Y31	Z31	X32	Y32	Z32	X33	Y33	Z33	X34	Y34	Z34	X35	Y35	Z35	X36	Y36	Z36	X37	Y37	Z37	X38	Y38	Z38	X39	Y39	Z39	X40	Y40	Z40	X41	Y41	Z41	X42	Y42	Z42	X43	Y43	Z43	X44	Y44	Z44	X45	Y45	Z45	X46	Y46	Z46	X47	Y47	Z47	X48	Y48	Z48	X49	Y49	Z49	
1501	7.5050	690.047733	1348.524626	-31.823296	663.593737	1363.712256	-311.449849	646.713481	1370.549346	-174.803528	658.742605	1219.137593	-167.621324	569.274969	1102.330103	80.321489	619.864564	909.342583	-1.764354	583.719695	1113.777910	-451.161084	651.004691	906.220098	-398.290269	128.541960	1142.198110	-257.148612	329.641072	1126.701821	-350.488939	279.023562	1134.356264	-88.052298	329.666067	1041.576042	-325.607221	267.593493	1065.568322	-87.029251	163.623162	1197.213984	-193.603959	199.477277	1197.451043	-301.856775	151.275831	1058.222022	-51.497360	212.177763	1008.360305	-426.162901	254.296623	964.213011	-17.670529	342.220541	951.014416	-19.918087	408.016789	897.996740	-12.633808	355.794459	985.027219	-27.487869	513.317244	855.250040	-21.767699	522.467239	835.608047	-147.999148	426.951074	779.254891	0.464226	383.923567	702.248601	-12.784896	309.903049	658.583838	-21.567285	408.282992	683.170953	-35.404758	231.242311	575.372578	-42.352896	263.087854	580.310475	-118.893998	176.587823	580.157273	-90.878783	375.795712	440.338562	-84.796208	291.104817	459.065450	-25.792580	239.599505	885.609381	-432.527287	267.867936	807.001415	-410.198945	301.891902	813.414622	-396.004150	251.818592	720.264039	-399.240233	260.055476	614.950713	-382.371897	245.798059	608.289842	-264.908559	30.222393	317.192635	-385.852814	-28.453653	320.753799	-343.554390	85.958478	181.930069	-394.999128	167.278754	532.248014	-415.677504	145.227192	448.725086	-401.446951	81.778976	385.966414	-397.493962	171.773635	436.232423	-376.765641	161.803120	166.887724	-337.890312	-204.200003	832.156203	-224.673362	-78.170296	81.935231	-423.771627	-102.647647	80.712112	-24.443088	
1502	7.5100	691.607789	1346.587133	-31.862040	664.282064	1363.607894	-311.319424	648.034478	1370.329405	-174.730703	658.397526	1218.283655	-168.022078	568.865540	1101.793282	80.455813	619.742503	909.306279	-1.813176	584.156388	1114.341978	-451.337964	651.124846	906.202825	-398.172814	130.783829	1147.126931	-261.083107	328.239345	1130.322428	-350.819372	279.232181	1136.463877	-86.887861	329.360146	1044.741306	-326.290013	267.164448	1066.914457	-86.629931	163.735117	1199.839258	-191.925759	199.168199	1199.979710	-300.107479	151.879275	1060.940369	-49.804972	212.077441	1011.083905	-425.193996	253.305551	963.981481	-16.863044	341.073132	949.675029	-19.672590	406.125956	895.630575	-13.190842	355.019454	983.534834	-26.980892	511.088852	851.135959	-22.533733	518.728081	833.067391	-149.107544	426.241601	774.428503	-0.457888	384.333169	696.563197	-13.125149	310.982177	651.750559	-21.342957	408.837920	677.809081	-35.949281	234.045112	566.092823	-41.595807	265.448390	572.162027	-118.155090	178.908092	568.999494	-89.850922	383.052280	436.439398	-84.288203	298.051118	452.162646	-24.852084	241.337127	888.006729	-431.489128	271.540206	810.112714	-409.094288	305.358832	817.304320	-394.836858	257.720777	722.990296	-398.703645	268.228066	617.682359	-381.933528	254.483835	610.392320	-264.563860	30.009056	326.692311	-385.684103	-28.411868	332.554561	-343.043893	79.479171	188.745378	-395.051080	172.263693	537.830574	-415.170876	148.146243	454.844765	-401.145621	83.066464	393.668791	-396.851779	174.626065	441.563007	-376.711352	154.375013	169.559451	-338.090880	-204.292198	831.980035	-224.465418	-78.166456	81.939135	-423.740094	-102.604280	80.756036	-24.370668	
1503	7.5150	692.957623	1344.780114	-32.027701	665.267058	1363.452462	-311.320608	649.369150	1370.239929	-174.671721	657.989288	1217.408309	-168.324701	568.478266	1101.328330	80.255862	619.684367	909.321343	-1.757054	584.776414	1114.691183	-451.395870	651.208213	906.158740	-397.992778	130.743506	1149.866412	-259.936135	327.597438	1134.739622	-353.356155	279.360507	1138.303893	-86.023530	329.153388	1047.951223	-327.297225	267.020749	1068.325657	-86.333653	163.757948	1203.002655	-189.678100	199.005577	1202.439216	-298.163165	152.503438	1063.147928	-47.997536	211.711093	1013.873204	-424.158041	252.355952	963.510642	-16.058788	339.839689	947.775746	-19.326229	404.028154	892.601096	-13.770017	354.341604	981.423838	-26.485361	508.635069	846.302954	-23.569676	514.530126	829.547977	-150.111828	425.064462	768.845747	-1.310147	384.147177	690.154320	-13.545175	311.532718	644.219907	-21.061379	408.935959	671.652331	-36.393457	236.558049	556.426617	-40.462162	267.623430	563.258427	-117.188362	180.974226	557.187544	-88.820882	389.672491	431.954087	-83.876727	304.155227	444.671838	-24.184657	242.957437	890.318591	-430.449671	275.519818	813.342949	-407.974576	308.928536	821.587684	-393.551497	264.475390	725.890985	-398.046242	276.929056	620.385980	-381.197676	263.587384	612.570674	-264.013460	30.662230	336.271632	-385.651127	-27.582278	344.292928	-342.524492	73.418518	195.876112	-395.060794	178.143917	543.558307	-414.652740	151.908234	461.136054	-400.996398	85.204927	401.719555	-396.593780	178.081339	446.958658	-376.604950	147.197115	172.568000	-338.357101	-204.257854	831.999929	-224.381391	-78.121177	81.964778	-423.705789	-102.574931	80.760555	-24.328257	
1504	7.5200	694.101543	1343.135375	-32.342031	666.435686	1363.186042	-311.463389	650.729576	1370.202450	-174.826480	657.500797	1216.726309	-168.794898	568.063096	1100.940678	79.771186	620.173119	909.188127	-1.487600	585.528458	1114.950691	-451.522508	651.216683	906.119680	-397.710982	127.736411	1149.516248	-250.594513	325.887015	1138.226121	-353.892845	279.506911	1140.233419	-84.397720	328.687513	1051.059811	-328.425431	267.323878	1069.819013	-85.792848	164.304612	1205.356058	-187.556918	198.854773	1204.741641	-296.150368	153.287012	1064.981433	-46.511929	211.203647	1016.648820	-423.151275	251.366429	962.691550	-15.165092	338.475383	945.370393	-19.044864	401.732596	888.921172	-14.107883	353.663901	978.863931	-25.969211	505.798943	840.284975	-24.640558	509.486804	825.123152	-151.431658	423.127607	762.880793	-2.039548	383.478816	683.141850	-13.838044	311.702096	635.968543	-20.572411	408.306297	664.907076	-36.676566	238.701856	545.831288	-39.485714	269.286238	553.813259	-116.488111	182.803116	544.733406	-87.798677	395.802208	426.905315	-83.459239	309.972221	436.343073	-23.555481	244.571845	892.627266	-429.343320	280.414080	817.200957	-407.675703	312.816481	826.157806	-392.411279	271.718705	728.938921	-397.376470	286.142512	623.195680	-380.317723	273.057060	614.863109	-263.330325	31.990732	345.869715	-385.812102	-25.817770	356.380423	-342.329973	67.573159	203.035239	-395.017088	184.602211	549.213714	-414.147025	156.290940	467.500793	-400.758068	88.030803	409.929262	-396.567708	182.105790	452.585093	-376.477450	140.292098	176.069928	-338.588545	-204.248200	832.023203	-224.304487	-78.111083	81.970570	-423.689764	-102.541398	80.773025	-24.287796	
1505	7.5250	694.846097	1341.808981	-32.876022	667.827669	1362.856138	-311.740162	652.086181	1370.205477	-174.981836	657.039947	1216.004430	-169.150950	567.743826	1100.658954	79.118508	620.163522	909.271136	-1.263197	586.425817	1115.138156	-451.766672	651.201102	906.083309	-397.322230	127.171471	1151.647808	-247.037979	323.971694	1141.403938	-354.154211	279.325184	1142.401857	-81.851054	328.237596	1053.859147	-329.558662	267.851435	1071.186000	-85.176773	164.999023	1207.733776	-185.216774	197.975327	1207.187611	-293.353644	154.027873	1066.621754	-44.871716	210.427123	1019.491638	-422.092413	250.362398	961.661645	-14.208342	337.114074	942.475737	-18.709679	399.151355	884.641581	-14.746323	352.921593	975.779213	-25.405547	502.712309	834.135556	-25.852961	505.255169	820.004704	-151.996894	420.664229	755.109807	-4.276769	382.358832	675.487011	-14.031264	311.454944	626.893923	-20.082725	407.413952	657.564072	-36.897794	240.914512	534.814289	-38.287460	270.640211	543.757479	-115.700454	184.454494	531.901585	-86.915786	401.213380	421.264550	-83.045468	315.168350	427.651786	-22.949504	246.191076	894.799022	-428.228892	284.724800	820.688652	-406.563793	315.896803	830.147210	-390.223092	279.436856	732.089253	-396.750339	295.663776	626.046870	-379.447230	282.808486	617.299024	-262.455589	33.751358	355.460628	-385.987440	-23.468590	368.353102	-342.159936	62.518248	210.822400	-395.206441	191.578522	555.078563	-413.690482	161.097928	474.011950	-400.656024	91.142286	418.512622	-396.988019	186.444168	458.365402	-376.342087	133.568823	179.788099	-338.792189	-204.225445	832.040278	-224.249872	-78.098724	82.011579	-423.667730	-102.531438	80.771483	-24.283730	
